<?xml version="1.0" encoding="UTF-8" standalone="no"?>
<!-- Created with Inkscape (http://www.inkscape.org/) -->

<svg
   width="100"
   height="100.0003"
   viewBox="0 0 100 100.0003"
   version="1.1"
   id="svg1"
   xmlns="http://www.w3.org/2000/svg"
   xmlns:svg="http://www.w3.org/2000/svg">
  <defs
     id="defs1" />
  <g
     id="layer1"
     transform="translate(-838.91298,-537.33969)">
    <path
       id="path7"
       d=""
       style="display:inline;fill:#ffffff" />
    <path
       d="m 858.9111,537.34 c -0.58,0.04 -1.158,0.1051 -1.7324,0.1953 -10.2888,0.8954 -18.2037,9.4774 -18.2657,19.8047 v 60 c 0,11.0457 8.9544,20 20.0001,20 h 26.7951 c 1.662,0 3,-1.338 3,-3 0,-0.8164 -0.326,-1.5519 -0.8516,-2.0918 l -0.057,-0.057 -24.1799,-24.1817 c -2.4414,-2.4409 -2.4414,-6.3989 0,-8.8398 1.1724,-1.172 2.7623,-1.8304 4.42,-1.8301 0.8211,2e-4 1.6341,0.1621 2.3926,0.4766 0.7574,0.3139 1.4456,0.7738 2.0254,1.3535 l 32.3186,32.3164 0.031,-0.039 c 3.7361,3.7545 8.8089,5.8737 14.1056,5.8926 11.0457,0 20.0001,-8.9543 20.0001,-20 v -60 c 0,-11.0456 -8.9544,-20 -20.0001,-20 h -26.7912 c -1.662,0 -3,1.338 -3,3 0,0.83 0.3339,1.579 0.875,2.1211 v 0 0 l 24.2072,24.2051 c 2.4415,2.4409 2.4415,6.399 0,8.8398 -2.4412,2.4428 -6.4008,2.4428 -8.8419,0 l -32.2756,-32.2754 v 0 0 c -3.7531,-3.7705 -8.8538,-5.8903 -14.1739,-5.8906 z"
       style="font-variation-settings:'wdth' 99.8, 'wght' 306;fill:#ff4400;fill-opacity:1;strokeWidth:12.5;strokeLinecap:round;strokeLinejoin:round"
       id="path161" />
  </g>
</svg>
