<svg width="199" height="200" viewBox="0 0 199 200" fill="none" xmlns="http://www.w3.org/2000/svg">
<g clipPath="url(#clip0_15_2)">
<path d="M185.568 149.805C213.026 102.246 196.731 41.4332 149.172 13.9751C101.613 -13.483 40.7999 2.8119 13.3418 50.3707C-14.1163 97.9295 2.17866 158.743 49.7374 186.201C97.2962 213.659 158.109 197.364 185.568 149.805Z" fill="url(#paint0_linear_15_2)"/>
<g opacity="0.337008" filter="url(#filter0_f_15_2)">
<path d="M78.292 42.3975C69.2126 42.7982 58.2397 46.9978 56.4478 56.9951C53.9567 63.6024 65.5877 67.7935 58.1104 72.7588C59.6198 79.9979 48.7187 83.7701 55.6748 90.9932C53.8389 97.7955 58.6291 104.467 56.7881 111.366C61.035 120.097 76.5383 112.233 73.7979 125.87C73.3702 132.134 76.5957 139.222 71.9756 139.726C68.3963 148.626 55.2805 149.145 52.9092 159.12C48.8968 167.319 45.7093 175.832 43.3975 184.636C43.6229 184.768 43.8366 184.913 44.0635 185.044C58.804 193.554 74.7739 197.875 90.6182 198.39C92.6917 198.39 94.7653 198.39 96.8389 198.39C119.436 197.703 141.399 189.291 158.784 174.228C158.612 164.062 157.099 154.151 150.677 145.694C142.728 135.882 129.616 133.276 119.202 126.94C107.539 124.579 102.251 111.527 110.354 102.048C118.645 90.0241 126.497 73.865 119.489 59.5088C112.806 48.6623 99.8605 47.7718 88.7432 45.2432C85.2122 44.4401 82.0452 42.3702 78.292 42.3975ZM64.4404 61.753C64.2506 62.065 64.0493 62.3783 63.876 62.6826C63.9955 62.4296 63.961 62.5267 64.0967 62.2354C64.2028 62.0687 64.3306 61.9172 64.4404 61.753ZM104.343 111.276C106.986 119.699 106.798 117.287 104.343 111.276Z" fill="black"/>
</g>
<mask id="mask0_15_2" style="mask-type:luminance" maskUnits="userSpaceOnUse" x="0" y="0" width="199" height="200">
<path d="M185.567 149.805C213.025 102.247 196.73 41.4342 149.172 13.9763C101.614 -13.4815 40.8011 2.81318 13.3433 50.3715C-14.1146 97.9299 2.18015 158.743 49.7385 186.2C97.2968 213.658 158.109 197.363 185.567 149.805Z" fill="white"/>
</mask>
<g mask="url(#mask0_15_2)">
<path d="M67.088 68.982C66.9483 69.3414 66.796 69.6968 66.6367 70.0053C65.9922 71.253 65.2315 72.4216 65.2315 72.4216C65.2315 72.4216 64.0046 73.8599 64.3139 77.094L64.6766 78.105C64.6766 78.105 60.4193 81.8492 58.8747 83.816C57.3304 85.7827 59.1734 87.3163 59.1734 87.3163L60.129 88.4561C60.129 88.4561 60.9704 90.5056 61.9167 90.5104C61.9167 90.5104 60.1906 93.1401 60.3942 94.8251C60.5978 96.5102 60.7929 97.3924 60.7929 97.3924L61.1501 98.7414C61.1501 98.7414 61.3316 100.614 62.536 102.796C63.7404 104.979 63.7054 104.364 63.5649 105.328C63.4245 106.291 63.1443 106.894 63.1443 106.894C63.1443 106.894 61.9346 111.059 64.7011 112.905C67.4676 114.751 77.1571 113.825 77.1571 113.825L91.6154 108.482L94.8879 107.991L100.948 95.7889C100.948 95.7889 100.89 95.1024 101.023 94.8833C101.157 94.6643 101.615 94.259 101.615 94.259L102.365 92.6997L104.524 84.8031L104.256 83.4766L102.712 82.832C102.712 82.832 102.458 82.7867 102.067 82.6883C101.676 82.5899 101.149 82.4384 100.605 82.2254C100.333 82.1189 100.056 81.9972 99.7895 81.859C99.5233 81.7208 99.2673 81.5663 99.0365 81.3944C98.8057 81.2225 98.6003 81.0332 98.4346 80.8255C98.3518 80.7217 98.2789 80.6133 98.2178 80.5001C98.1569 80.387 98.108 80.2691 98.0726 80.1464C97.9307 79.6555 97.8433 79.1874 97.7929 78.7459C97.7425 78.3043 97.7288 77.8893 97.735 77.5035C97.748 76.7319 97.8386 76.078 97.8694 75.5678C97.8766 75.4403 97.8823 75.2506 97.8751 75.0091C97.8694 74.7676 97.8517 74.4744 97.8144 74.1407C97.7772 73.8069 97.7202 73.4325 97.6353 73.0282C97.5505 72.6238 97.4376 72.1897 97.288 71.7365C97.1385 71.2833 96.9523 70.811 96.7214 70.3307C96.4903 69.8504 96.2141 69.362 95.8847 68.8762C95.72 68.6334 95.542 68.3912 95.3495 68.151C95.1571 67.9108 94.9501 67.6726 94.7278 67.4378C94.5055 67.2031 94.2677 66.9718 94.0134 66.7452C93.7592 66.5185 93.4883 66.2967 93.1999 66.0809C88.5857 62.6286 87.6304 61.911 87.6304 61.911L84.9065 59.1503L82.8432 57.504C82.8432 57.504 82.7233 57.3477 82.4965 57.1238C82.383 57.0119 82.2426 56.8832 82.0775 56.7487C81.9122 56.6142 81.7219 56.4738 81.5081 56.3389C81.2941 56.2041 81.0568 56.0747 80.7976 55.9618C80.5385 55.8489 80.2574 55.7527 79.9562 55.684C79.6549 55.6153 79.3337 55.5743 78.9936 55.5721C78.6535 55.5698 78.2947 55.6062 77.9191 55.6927C77.872 55.6288 74.9107 56.863 72.9162 59.3784C72.583 59.7324 72.2477 60.0704 71.9213 60.458C71.3874 61.0916 70.8676 61.7659 70.3788 62.467C69.8898 63.1681 69.4317 63.8959 69.0216 64.6366C68.8166 65.0069 68.6237 65.3805 68.4445 65.7556C68.2654 66.1306 68.1004 66.507 67.9515 66.8832C67.8028 67.2595 67.6701 67.6355 67.5558 68.0095C67.4415 68.3835 67.3455 68.7554 67.2699 69.1237L67.088 68.982Z" fill="#C48B78"/>
<path d="M67.2703 69.1239L66.2716 68.3469C66.2716 68.3469 54.9717 59.457 68.6925 48.3808C68.6925 48.3808 69.2204 48.319 70.3438 47.4116C71.4671 46.5042 73.4352 44.6887 76.5523 44.7244C79.6694 44.7602 81.1227 44.0199 82.2043 43.7678C83.2859 43.5156 85.1607 43.0273 91.8473 45.5167C91.8473 45.5167 91.7765 45.9953 95.0351 46.6927C98.2938 47.3901 101.381 47.6985 102.981 48.7197C104.582 49.7408 107.149 48.2376 109.779 49.1963C112.409 50.1551 120.063 54.9797 120.063 54.9797C120.063 54.9797 124.05 58.305 125.568 61.3393C127.086 64.3736 127.452 67.2941 127.452 67.2941C127.452 67.2941 127.908 70.9307 127.768 73.4077C127.627 75.8846 126.857 81.9668 126.857 81.9668L122.794 92.0494L117.178 101.564C117.178 101.564 113.478 106.538 113.166 109.008C112.855 111.478 112.121 113.435 112.121 113.435C112.121 113.435 111.848 114.449 112.664 117.196C112.664 117.196 112.721 118.146 112.439 118.964C112.439 118.964 108.922 109.807 108.238 107.099C107.554 104.391 107.094 99.8665 107.094 99.8665L107.122 97.6605L104.256 83.4765C102.226 83.7885 98.4195 88.0121 98.4101 88.8018C98.4101 88.8018 98.6394 82.1099 98.0724 80.1463C97.5053 78.1827 97.8077 76.5883 97.8693 75.568C97.9311 74.5477 97.8144 69.5332 93.2003 66.0809C88.5861 62.6286 87.6306 61.9112 87.6306 61.9112L84.9067 59.1503L82.8436 57.5042C82.8436 57.5042 80.9247 55.001 77.9194 55.6927C74.9144 56.3844 68.4803 63.2315 67.2703 69.1239Z" fill="#040203" stroke="black" strokeWidth="0.999999"/>
<path d="M104 84C104.82 83.3816 105.384 82.6701 105.949 82.2669L107.654 80.935C107.654 80.935 112.506 76.3705 115.304 79.0234C118.102 81.6763 117.945 84.2596 117.945 84.2596C117.945 84.2596 117.161 90.2112 115.577 92.412C113.993 94.6129 108.906 96.8885 108.906 96.8885C108.906 96.8885 107.074 97.8203 105.322 97.7698C103.571 97.7193 102.029 96.9425 101.488 96.3657C100.948 95.7889 100.959 94.923 100.959 94.923L102.365 92.6997L103.5 84.5L104 84Z" fill="#C48B78"/>
<path d="M77.3136 115.585C77.3136 115.585 77.6078 117.95 78.4051 121.533C79.2025 125.116 79.7215 125.343 79.7215 126.437C79.7215 127.531 79.7215 129.562 79.7215 130.29C79.7215 131.018 79.8877 135.716 79.8877 136.755C79.8877 137.794 80.2182 141.308 80.2182 141.308L80.2254 142.384L92.0445 142.05L114.485 136.017L120.659 126.986C120.659 126.986 114.854 123.683 112.438 118.964C110.023 114.244 107.534 104.118 107.534 104.118L107.122 97.6604L101.36 94.1322L77.3136 115.585Z" fill="#C18A76"/>
<path d="M78.121 139.749C78.121 139.749 79.2487 138.893 79.9741 138.619L80.2386 141.743C80.2386 141.743 75.9805 142.4 78.121 139.749Z" fill="#1A1A1A"/>
<path d="M120.244 125.805C120.244 125.805 98.3603 139.035 93.6726 140.142C88.9849 141.249 78.8293 142.714 78.0679 140.823C78.0679 140.823 77.9061 140.039 78.1211 139.749L77.5255 140.355C77.5255 140.355 77.1752 140.565 77.2434 141.423C77.3118 142.282 76.7513 143.587 76.7513 143.587C76.7513 143.587 73.4855 146.496 72.6314 147.042C71.7772 147.588 66.6904 150.626 66.6904 150.626C66.6904 150.626 61.2376 154.07 59.8314 157.391C58.4254 160.712 51.9846 175.279 51.9846 175.279L49.319 185.931L44.5361 199.535H149.918V141.856L149.706 140.565C149.706 140.565 133.349 132.08 129.88 130.706C126.412 129.332 126.234 129.092 124.878 128.096C123.522 127.1 121.875 125.137 120.244 125.805Z" fill="black"/>
<path opacity="0.121878" d="M89.942 54.7617C89.942 54.7617 87.3732 56.208 83.4544 55.2889C79.5357 54.3698 80.1272 52.8688 75.4996 50.1777C70.8719 47.4866 69.6326 51.7186 69.6326 51.7186C69.6326 51.7186 69.1555 53.1084 70.1437 55.3482C70.1437 55.3482 72.2244 49.6513 76.8268 53.046C81.4292 56.4406 85.6706 57.6526 89.942 54.7617Z" fill="white"/>
<path d="M149.706 140.565C149.706 140.565 165.168 149.222 164.469 176.501C163.979 195.659 164.11 199.559 164.11 199.559H145.635L149.706 140.565Z" fill="black"/>
<path opacity="0.413003" d="M77.3705 143.039C77.3705 143.039 80.3981 145.073 87.255 143.934C94.1118 142.794 93.6622 142.801 97.8028 141.635C101.943 140.469 109.282 135.532 109.282 135.532L120.193 128.941L122.962 126.636" stroke="#464646" strokeLinecap="round" strokeLinejoin="round" strokeDasharray="3 3"/>
<path opacity="0.317123" d="M77.4694 117.325C77.4694 117.325 82.5553 137.142 109.282 135.532C109.882 135.496 118.368 126.157 118.985 126.109C118.985 126.109 113.415 125 110.199 113.13C106.984 101.259 107.122 97.6604 107.122 97.6604C107.122 97.6604 103.541 98.4428 102.578 96.3509C101.956 94.5271 101.668 91.7435 104.268 89.7832C104.8 89.3819 104.946 88.6087 104.701 88.1477C104.624 88.0014 104.636 87.2326 104.678 87.074C105.241 84.9253 105.929 82.9619 106.925 81.4523C102.884 85.4855 100.441 78.7974 98.4964 97.0611L93.0797 107.269L77.4694 117.325Z" fill="url(#paint1_linear_15_2)"/>
<path d="M105.58 82.537C105.72 82.4014 102.1 84.2428 101.15 85.9688C100.535 87.0859 99.4908 91.3223 99.4908 91.3223C99.4908 91.3223 99.3164 92.5009 99.2748 93.0117C99.2332 93.5226 99.0254 95.8554 99.0254 95.8554L98.7333 98.1706L98.2713 99.5759L97.9737 101.613C97.9737 101.613 97.1778 103.051 97.2425 103.614C97.3071 104.177 97.9067 105.946 97.9067 105.946L98.8259 107.599L97.5965 110.278C97.5965 110.278 95.8528 111.909 95.5415 112.053C95.23 112.197 91.3493 113.649 91.3493 113.649L84.844 115.983L79.3392 117.672C79.3392 117.672 72.6419 117.817 69.1433 117.329C65.6446 116.84 62.5499 113.228 62.5499 113.228C62.5499 113.228 61.1356 111.628 61.6646 110.267C62.1937 108.907 63.1444 106.894 63.1444 106.894L63.5197 106.982L64.1146 107.401L65.2158 107.734L66.514 107.443L67.5635 106.742L68.6011 106.446C68.6011 106.446 70.3701 106.376 70.6339 106.376C70.8978 106.376 72.172 105.383 72.172 105.383L73.2382 104.104L74.8381 103.433L76.7664 104.083C76.7664 104.083 80.2874 105.093 80.4949 104.987C80.7023 104.881 81.4076 103.615 81.4076 103.615L80.6442 101.296L79.2327 98.8794C79.2327 98.8794 77.9371 97.3986 78.1902 96.3941C78.4432 95.3896 80.0017 94.7914 80.0017 94.7914L82.888 93.4722L87.8911 90.8877L92.8579 88.3214L95.8591 86.452L96.7459 85.0556C96.9448 84.3415 97.3303 83.6274 97.2652 82.9134C97.4636 82.098 97.6294 80.0857 97.6166 79.3112L97.6515 78.3152C97.6515 78.3152 97.7388 73.4934 98.1693 74.1517C98.8126 75.1351 103.037 81.5471 105.58 82.537Z" fill="url(#paint2_linear_15_2)"/>
<path d="M70.5371 70.3507C70.7251 71.1029 71.2009 71.1798 71.2009 71.1798L72.5516 70.8117C72.5516 70.8117 73.6702 70.2444 74.0601 69.9943C74.4501 69.7443 75.5262 68.62 75.5262 68.62C75.5262 68.62 76.0549 68.5121 77.1427 68.4315C78.0004 68.3679 78.3742 68.5158 78.5796 68.597C78.6347 68.6188 78.6777 68.6358 78.7146 68.6427C78.8894 68.6751 80.5057 68.8909 81.0881 68.8909C81.6705 68.8909 82.9376 69.3913 83.1315 69.5132C83.2734 69.6025 84.1569 69.7919 84.7256 69.9139C84.9341 69.9586 85.1004 69.9943 85.1722 70.0126C85.44 70.0808 86.4359 70.3709 86.4359 70.3709L86.0142 69.7328L85.0783 68.7961C85.0783 68.7961 84.5536 68.1711 84.3112 67.7179C84.105 67.333 83.7026 67.1094 83.4812 66.9865C83.4421 66.9648 83.4085 66.9461 83.3828 66.9303C83.2116 66.8253 82.4497 66.5877 82.4497 66.5877C82.4497 66.5877 80.5696 65.845 79.8656 65.845C79.1617 65.845 78.7054 66.2109 78.7054 66.2109L75.8862 67.0678L75.7965 66.8599L74.766 67.2049L73.4879 67.7076L73.0922 67.6053L72.4627 68.0612L71.9779 67.9201L71.5395 68.3586L71.292 67.868L70.8062 68.2295L70.3815 68.9266C70.3815 68.9266 70.349 69.5985 70.5371 70.3507Z" fill="#A87969"/>
<path d="M65.1143 89.8867L64.2068 89.8848L63.1299 90.2583L62.2955 90.4627L61.4752 91.2438C61.4752 91.2438 61.1232 91.6677 61.0462 91.72C60.9691 91.7723 60.7282 92.4655 60.7282 92.4655L60.3892 93.4448C60.3892 93.4448 60.1576 93.9261 60.1292 94.007C60.1009 94.088 60.0795 94.3701 60.0795 94.3701L60.9602 93.4871L62.1644 92.8984L63.4771 92.6401L65.2452 93.0767C65.2452 93.0767 67.6502 92.9676 67.8932 92.9676C68.1362 92.9676 70.0241 93.4633 70.0241 93.4633L71.051 94.3075C71.051 94.3075 72.0509 95.6493 72.2851 95.7409C72.3453 95.7645 72.4306 95.8216 72.538 95.8934C72.8485 96.1013 73.3437 96.4327 73.948 96.4327C74.7612 96.4327 75.2338 95.7933 75.2338 95.7933C75.2338 95.7933 74.8217 95.4259 74.1637 94.9702C73.5057 94.5146 73.3296 93.9362 73.3296 93.9362C73.3296 93.9362 72.8269 93.0214 72.6991 92.7928C72.5712 92.5642 71.1724 91.9753 71.1724 91.9753L69.8839 91.6279L67.4447 91.0532L65.1143 89.8867Z" fill="#A87969"/>
<path d="M65.3753 73.0259C65.3753 73.0259 65.6544 73.5052 65.7202 73.7521C65.786 73.999 65.786 74.5908 65.786 74.9257C65.786 75.2345 65.5986 75.3712 65.3538 75.5498C65.333 75.565 65.3118 75.5805 65.2903 75.5964C65.0151 75.7995 64.7191 76.2263 64.7191 76.2263L64.1636 75.9695L64.0318 75.1805L63.7922 74.1167L63.7697 73.5212L63.9977 73.7176L63.8194 73.0341L64.2458 73.2359L64.4825 72.4255L65.3753 73.0259Z" fill="#A87969"/>
<path d="M62.978 101.399L62.5485 100.115C62.933 100.04 64.524 99.6385 64.524 99.6385L65.0387 99.9629L64.7772 101.476L64.4056 102.839L62.978 101.399Z" fill="#A87969"/>
<path d="M105.58 82.537C105.72 82.4014 102.1 84.2428 101.15 85.9688C100.535 87.0859 99.4907 91.3223 99.4907 91.3223C99.4907 91.3223 99.3163 92.5009 99.2747 93.0117C99.2331 93.5226 99.0253 95.8554 99.0253 95.8554L98.7332 98.1706L98.2712 99.5759L97.9736 101.613C97.9736 101.613 97.1777 103.051 97.2424 103.614C97.307 104.177 97.9066 105.946 97.9066 105.946L98.8258 107.599L97.5964 110.278C97.0173 102.336 83.0305 95.204 95.859 86.452L96.7458 85.0556C96.9447 84.3415 97.3302 83.6274 97.2651 82.9134C97.4635 82.098 97.6293 80.0857 97.6165 79.3112L97.6514 78.3152C97.6514 78.3152 97.7387 73.4934 98.1692 74.1517C98.8125 75.1351 103.037 81.5471 105.58 82.537Z" fill="url(#paint3_linear_15_2)"/>
</g>
</g>
<defs>
<filter id="filter0_f_15_2" x="0.566338" y="-0.433907" width="201.049" height="241.655" filterUnits="userSpaceOnUse" colorInterpolationFilters="sRGB">
<feFlood floodOpacity="0" result="BackgroundImageFix"/>
<feBlend mode="normal" in="SourceGraphic" in2="BackgroundImageFix" result="shape"/>
<feGaussianBlur stdDeviation="21.4156" result="effect1_foregroundBlur_15_2"/>
</filter>
<linearGradient id="paint0_linear_15_2" x1="3737.92" y1="7438.59" x2="3738.1" y2="7438.7" gradientUnits="userSpaceOnUse">
<stop stopColor="#FF4400"/>
</linearGradient>
<linearGradient id="paint1_linear_15_2" x1="95.5415" y1="112.053" x2="93.4183" y2="124.527" gradientUnits="userSpaceOnUse">
<stop/>
<stop offset="1" stopOpacity="0"/>
</linearGradient>
<linearGradient id="paint2_linear_15_2" x1="80.6441" y1="101.296" x2="76.2775" y2="94.3431" gradientUnits="userSpaceOnUse">
<stop/>
<stop offset="1" stopColor="#C48B78"/>
</linearGradient>
<linearGradient id="paint3_linear_15_2" x1="98.8603" y1="83.4806" x2="91.9102" y2="84.8877" gradientUnits="userSpaceOnUse">
<stop/>
<stop offset="1" stopOpacity="0"/>
</linearGradient>
<clipPath id="clip0_15_2">
<rect width="199" height="200" fill="white"/>
</clipPath>
</defs>
</svg>
